<svg xmlns="http://www.w3.org/2000/svg" width="56" height="9" viewBox="0 0 56 9" fill="none">
  <path d="M0 0.764648L3.04998 0.766596L6.87752 8.97655H5.37293C4.41653 8.97655 3.54762 8.4196 3.14523 7.55108L0 0.764648Z" fill="#34C1CA"/>
    <path d="M4.30762 0.766724L7.35758 0.768671L11.1851 8.97862H9.14405C8.51617 8.97862 7.94466 8.61252 7.67835 8.04195L4.30762 0.766724Z" fill="#34CA5E"/>
    <path d="M8.67578 0.768555L11.6908 0.770502L11.1873 6.14706L8.67578 0.768555Z" fill="#34CA5E"/>
    <path d="M13.8989 0.772217L16.2977 0.774164L17.1861 5.38154L18.4554 0.774164L20.8562 0.776111L22.1527 5.39519L23.012 0.778059L25.3855 0.780006L23.9781 7.15945C23.7428 8.22855 22.7962 8.98801 21.7056 8.98801H21.0953L19.6743 3.80226L18.7101 7.2802C18.4302 8.2889 17.5126 8.98801 16.4668 8.98801H15.7554L13.8989 0.772217Z" fill="#1F2A33"/>
    <path d="M31.2248 0.780273H29.868H28.5111L25.4067 8.98632L27.9824 8.98825L28.3965 7.63293H29.8641H31.3317L31.7438 8.98825L34.3195 8.99022L31.2248 0.780273ZM28.9349 5.87255L29.866 2.82497L30.7933 5.87448L28.9349 5.87255Z" fill="#1F2A33"/>
    <path d="M40.0524 0.784174L38.1996 6.69238L36.351 0.782227H33.7578L36.8039 8.99216H38.1977H39.5916L42.6452 0.786122L40.0524 0.784174Z" fill="#1F2A33"/>
    <path d="M46.0612 0.786133H43.5708V8.99414H46.0612V0.786133Z" fill="#1F2A33"/>
    <path d="M53.1953 4.71768L55.728 0.791859L53.0125 0.789911L51.5469 3.33312L50.0831 0.789911L47.3692 0.787964L49.8984 4.71571L47.0874 8.99596L49.8654 8.99792L51.5469 6.30085L53.2244 8.99985H56.0001L53.1953 4.71768Z" fill="#1F2A33"/>
</svg>