<svg xmlns="http://www.w3.org/2000/svg" width="16" height="16" viewBox="0 0 16 16" fill="none">
  <path d="M11.9999 14H5.33325V5.33332L9.99992 0.666656L10.8333 1.49999C10.911 1.57777 10.9749 1.68332 11.0249 1.81666C11.0749 1.94999 11.0999 2.07777 11.0999 2.19999V2.43332L10.3666 5.33332H13.9999C14.3555 5.33332 14.6666 5.46666 14.9333 5.73332C15.1999 5.99999 15.3333 6.3111 15.3333 6.66666V7.99999C15.3333 8.07777 15.3249 8.1611 15.3083 8.24999C15.2916 8.33888 15.2666 8.42221 15.2333 8.49999L13.2333 13.2C13.1333 13.4222 12.9666 13.6111 12.7333 13.7667C12.4999 13.9222 12.2555 14 11.9999 14ZM3.99992 5.33332V14H1.33325V5.33332H3.99992Z" fill="#000"/>
</svg>