<svg xmlns="http://www.w3.org/2000/svg" width="16" height="16" viewBox="0 0 16 16" fill="none">
  <path d="M11.9999 14H4.66659V5.33333L9.33325 0.666668L10.1666 1.5C10.2444 1.57778 10.3083 1.68333 10.3583 1.81667C10.4083 1.95 10.4333 2.07778 10.4333 2.2V2.43333L9.69992 5.33333H13.9999C14.3555 5.33333 14.6666 5.46667 14.9333 5.73333C15.1999 6 15.3333 6.31111 15.3333 6.66667V8C15.3333 8.07778 15.3221 8.16111 15.2999 8.25C15.2777 8.33889 15.2555 8.42222 15.2333 8.5L13.2333 13.2C13.1333 13.4222 12.9666 13.6111 12.7333 13.7667C12.4999 13.9222 12.2555 14 11.9999 14ZM5.99992 12.6667H11.9999L13.9999 8V6.66667H7.99992L8.89992 3L5.99992 5.9V12.6667ZM4.66659 5.33333V6.66667H2.66659V12.6667H4.66659V14H1.33325V5.33333H4.66659Z" fill="#000"/>
</svg>